<svg width="430" height="75" viewBox="0 0 430 75" fill="none" xmlns="http://www.w3.org/2000/svg">
<path d="M22.7552 55.6406C11.2846 55.6406 1.63867 46.2188 1.63867 34.6523C1.63867 23.0859 11.2846 13.6641 22.7552 13.6641C29.1006 13.6641 33.6214 16.1719 37.0149 19.4531L33.0054 23.4961C30.5649 21.1875 27.276 19.4062 22.7552 19.4062C14.376 19.4062 7.833 26.2148 7.833 34.6641C7.833 43.1133 14.3876 49.9219 22.7552 49.9219C28.1825 49.9219 31.2854 47.7188 33.2611 45.7266C34.8881 44.0859 35.9573 41.7305 36.3525 38.5078H22.7552V32.7773H41.896C42.1052 33.7969 42.1981 35.0273 42.1981 36.3633C42.1981 40.6641 41.0243 45.9844 37.2706 49.7695C33.6214 53.5898 28.9495 55.6406 22.7552 55.6406Z" fill="#4285F4"/>
<path d="M71.7989 42.1289C71.7989 49.9102 65.8718 55.6406 58.5967 55.6406C51.3216 55.6406 45.3945 49.9102 45.3945 42.1289C45.3945 34.3008 51.3216 28.6172 58.5967 28.6172C65.8718 28.6172 71.7989 34.3008 71.7989 42.1289ZM66.0113 42.1289C66.0113 37.2656 62.5713 33.9375 58.5851 33.9375C54.5989 33.9375 51.1589 37.2656 51.1589 42.1289C51.1589 46.9453 54.5989 50.3203 58.5851 50.3203C62.5713 50.3203 66.0113 46.9453 66.0113 42.1289Z" fill="#E84435"/>
<path d="M101.398 42.1289C101.398 49.9102 95.4714 55.6406 88.1963 55.6406C80.9212 55.6406 74.9941 49.9102 74.9941 42.1289C74.9941 34.3008 80.9212 28.6172 88.1963 28.6172C95.4714 28.6172 101.398 34.3008 101.398 42.1289ZM95.6225 42.1289C95.6225 37.2656 92.1825 33.9375 88.1963 33.9375C84.2101 33.9375 80.7701 37.2656 80.7701 42.1289C80.7701 46.9453 84.2101 50.3203 88.1963 50.3203C92.1825 50.3203 95.6225 46.9453 95.6225 42.1289Z" fill="#FBBC04"/>
<path d="M130.267 29.4375V53.6953C130.267 63.6797 124.433 67.7695 117.529 67.7695C111.033 67.7695 107.128 63.3633 105.652 59.7891L110.777 57.6445C111.695 59.8477 113.927 62.4492 117.529 62.4492C121.946 62.4492 124.688 59.6836 124.688 54.5156V52.5703H124.479C123.154 54.2109 120.621 55.6406 117.425 55.6406C110.731 55.6406 104.583 49.7578 104.583 42.1758C104.583 34.5469 110.719 28.6172 117.425 28.6172C120.621 28.6172 123.154 30.0469 124.479 31.6406H124.688V29.4375H130.267ZM125.095 42.1758C125.095 37.418 121.946 33.9375 117.936 33.9375C113.88 33.9375 110.475 37.418 110.475 42.1758C110.475 46.8867 113.88 50.3086 117.936 50.3086C121.946 50.3203 125.095 46.8867 125.095 42.1758Z" fill="#4285F4"/>
<path d="M140.586 15.1055H134.694V54.8203H140.586V15.1055Z" fill="#0F9D58"/>
<path d="M163.737 46.582L168.304 49.6523C166.828 51.8555 163.283 55.6406 157.136 55.6406C149.523 55.6406 144.026 49.6992 144.026 42.1289C144.026 34.0898 149.57 28.6172 156.473 28.6172C163.423 28.6172 166.828 34.1953 167.944 37.2188L168.548 38.7539L150.627 46.2305C151.999 48.9375 154.126 50.3203 157.124 50.3203C160.134 50.3203 162.214 48.832 163.737 46.582ZM149.674 41.7187L161.656 36.7031C160.994 35.0156 159.018 33.832 156.682 33.832C153.684 33.8438 149.523 36.5039 149.674 41.7187Z" fill="#E84435"/>
<path d="M183.191 54.8203V17.7422H194.441C200.089 17.7422 204.61 19.4648 208.004 22.8984C211.397 26.332 213.094 30.7969 213.094 36.293C213.094 41.7891 211.397 46.2422 208.004 49.6875C204.61 53.1211 200.089 54.8438 194.441 54.8438H183.191V54.8203ZM187.921 50.2617H194.441C198.683 50.2617 202.053 49.0313 204.54 46.582C207.027 44.1328 208.271 40.6992 208.271 36.2695C208.271 31.8867 207.027 28.4531 204.54 25.9922C202.053 23.5195 198.695 22.2891 194.441 22.2891H187.921V50.2617ZM229.213 55.6524C225.413 55.6524 222.321 54.375 219.939 51.8203C217.557 49.2656 216.371 46.0313 216.371 42.1406C216.371 38.4492 217.522 35.2734 219.834 32.6133C222.147 29.9531 225.099 28.6289 228.69 28.6289C232.421 28.6289 235.407 29.8594 237.65 32.3086C239.893 34.7578 241.021 38.0391 241.021 42.1523L240.962 43.0313H221.078C221.217 45.5859 222.066 47.6133 223.623 49.0898C225.18 50.5781 227.005 51.3164 229.097 51.3164C232.49 51.3164 234.78 49.8633 235.977 46.9688L240.184 48.7266C239.359 50.6953 238.011 52.3477 236.128 53.6719C234.268 54.9844 231.956 55.6524 229.213 55.6524ZM235.988 39.082C235.884 37.6289 235.221 36.2461 234.013 34.9336C232.792 33.6211 230.991 32.9648 228.597 32.9648C226.854 32.9648 225.331 33.5156 224.053 34.6172C222.763 35.7188 221.88 37.207 221.403 39.0703H235.988V39.082ZM251.654 54.8203L241.485 29.4375H246.622L254.014 49.1133H254.118L261.614 29.4375H266.646L256.373 54.8203H251.654ZM279.883 55.6524C276.083 55.6524 272.992 54.375 270.609 51.8203C268.227 49.2656 267.041 46.0313 267.041 42.1406C267.041 38.4492 268.192 35.2734 270.505 32.6133C272.817 29.9531 275.769 28.6289 279.36 28.6289C283.091 28.6289 286.078 29.8594 288.321 32.3086C290.564 34.7578 291.679 38.0391 291.679 42.1523L291.633 43.0313H271.748C271.888 45.5859 272.736 47.6133 274.293 49.0898C275.851 50.5781 277.675 51.3164 279.767 51.3164C283.161 51.3164 285.45 49.8633 286.647 46.9688L290.854 48.7266C290.029 50.6953 288.681 52.3477 286.798 53.6719C284.939 54.9844 282.626 55.6524 279.883 55.6524ZM286.659 39.082C286.554 37.6289 285.892 36.2461 284.683 34.9336C283.463 33.6211 281.661 32.9648 279.267 32.9648C277.524 32.9648 276.002 33.5156 274.723 34.6172C273.433 35.7188 272.562 37.207 272.074 39.0703H286.659V39.082ZM300.442 54.8203H295.724V17.7422H300.442V54.8203ZM308.159 32.4727C310.588 29.9062 313.691 28.6172 317.456 28.6172C321.221 28.6172 324.324 29.9062 326.753 32.4727C329.182 35.0508 330.402 38.2617 330.402 42.1289C330.402 45.9961 329.182 49.2188 326.753 51.7852C324.324 54.3633 321.221 55.6406 317.456 55.6406C313.691 55.6406 310.588 54.3516 308.159 51.7852C305.73 49.2188 304.509 45.9961 304.509 42.1289C304.509 38.2734 305.73 35.0508 308.159 32.4727ZM311.68 48.7852C313.307 50.4609 315.236 51.293 317.456 51.293C319.687 51.293 321.605 50.4609 323.232 48.7852C324.859 47.1094 325.672 44.8945 325.672 42.1289C325.672 39.3633 324.859 37.1484 323.232 35.4727C321.605 33.7969 319.676 32.9648 317.456 32.9648C315.225 32.9648 313.307 33.8086 311.68 35.4727C310.053 37.1484 309.239 39.3633 309.239 42.1289C309.239 44.8945 310.053 47.1211 311.68 48.7852ZM347.614 55.6524C345.697 55.6524 343.977 55.2422 342.454 54.4102C340.932 53.5781 339.793 52.5469 339.037 51.3047H338.828L339.037 54.832V66.0234H334.307V29.4609H338.828V32.9766H339.037C339.793 31.7344 340.932 30.7031 342.454 29.8711C343.977 29.0391 345.697 28.6289 347.614 28.6289C350.868 28.6289 353.681 29.918 356.04 32.5078C358.399 35.0977 359.584 38.3086 359.584 42.1406C359.584 45.9727 358.399 49.1836 356.04 51.7734C353.681 54.3633 350.868 55.6524 347.614 55.6524ZM346.847 51.3047C349.032 51.3047 350.926 50.4727 352.495 48.7969C354.064 47.1211 354.854 44.9063 354.854 42.1406C354.854 39.375 354.064 37.1602 352.495 35.4844C350.926 33.8086 349.032 32.9766 346.847 32.9766C344.616 32.9766 342.733 33.8086 341.176 35.4609C339.618 37.1133 338.84 39.3398 338.84 42.1406C338.84 44.9414 339.618 47.168 341.176 48.8203C342.733 50.4727 344.627 51.3047 346.847 51.3047ZM375.146 55.6524C371.345 55.6524 368.254 54.375 365.872 51.8203C363.489 49.2656 362.304 46.0313 362.304 42.1406C362.304 38.4492 363.454 35.2734 365.767 32.6133C368.08 29.9531 371.032 28.6289 374.623 28.6289C378.353 28.6289 381.34 29.8594 383.583 32.3086C385.826 34.7578 386.953 38.0391 386.953 42.1523L386.895 43.0313H367.011C367.15 45.5859 367.998 47.6133 369.556 49.0898C371.113 50.5781 372.938 51.3164 375.03 51.3164C378.423 51.3164 380.712 49.8633 381.909 46.9688L386.117 48.7266C385.291 50.6953 383.943 52.3477 382.061 53.6719C380.189 54.9844 377.877 55.6524 375.146 55.6524ZM381.921 39.082C381.817 37.6289 381.154 36.2461 379.945 34.9336C378.725 33.6211 376.924 32.9648 374.53 32.9648C372.787 32.9648 371.264 33.5156 369.986 34.6172C368.696 35.7188 367.812 37.207 367.336 39.0703H381.921V39.082ZM395.635 54.8203H390.905V29.4492H395.425V33.5977H395.635C396.111 32.2148 397.099 31.0781 398.587 30.1758C400.074 29.2734 401.527 28.8281 402.921 28.8281C404.328 28.8281 405.513 29.0391 406.466 29.4492L404.665 33.9023C404.049 33.6563 403.212 33.5391 402.143 33.5391C400.434 33.5391 398.912 34.2188 397.599 35.5898C396.274 36.9609 395.623 38.7422 395.623 40.957V54.8203H395.635ZM418.169 55.6524C415.357 55.6524 413.044 54.9609 411.208 53.5781C409.371 52.1953 408.035 50.4727 407.175 48.3984L411.394 46.6406C412.73 49.8164 415.008 51.4102 418.227 51.4102C419.703 51.4102 420.912 51.082 421.853 50.4258C422.794 49.7695 423.259 48.9023 423.259 47.8359C423.259 46.1836 422.109 45.0586 419.819 44.4727L414.741 43.2305C413.125 42.8203 411.603 42.0352 410.173 40.875C408.732 39.7148 408.012 38.1562 408.012 36.1875C408.012 33.9492 408.999 32.1211 410.964 30.7266C412.928 29.332 415.264 28.6289 417.971 28.6289C420.203 28.6289 422.19 29.1445 423.933 30.1523C425.677 31.1719 426.932 32.625 427.687 34.5352L423.573 36.2461C422.643 33.9961 420.726 32.8828 417.82 32.8828C416.414 32.8828 415.229 33.1758 414.276 33.7617C413.311 34.3477 412.835 35.1445 412.835 36.1406C412.835 37.5938 413.95 38.5781 416.17 39.0938L421.156 40.2891C423.515 40.8398 425.27 41.7891 426.397 43.1367C427.524 44.4844 428.094 46.0078 428.094 47.6953C428.094 49.9688 427.164 51.8789 425.316 53.3906C423.457 54.8906 421.074 55.6524 418.169 55.6524Z" fill="#404040"/>
</svg>
